<?xml version="1.0" encoding="utf-8"?>
<!-- Generator: Adobe Illustrator 26.2.1, SVG Export Plug-In . SVG Version: 6.00 Build 0)  -->
<svg version="1.1" id="Layer_1" xmlns="http://www.w3.org/2000/svg" xmlns:xlink="http://www.w3.org/1999/xlink" x="0px" y="0px"
	 viewBox="0 0 1507.6 619.7" style="enable-background:new 0 0 1507.6 619.7;" xml:space="preserve">
<style type="text/css">
	.st0{fill:#356BF6;}
	.st1{fill:#FFFFFF;}
</style>
<g>
	<path class="st0" d="M8270.8,10374v-172.4h51.3v21.7h1.7c4.9-8.4,11.4-14.7,19.2-19.1c7.9-4.4,17-6.6,27.2-6.6
		c9.5,0,17.7,2.2,24.7,6.6c6.9,4.4,12.1,10.7,15.5,19.1h1.7c6.1-8.5,13.3-15,21.7-19.2c8.4-4.3,18.3-6.4,29.9-6.4
		c16,0,28.5,5.5,37.5,16.4c9,10.9,13.5,26.3,13.5,46v114h-51.3v-102c0-8.5-1.8-15.1-5.3-19.7c-3.5-4.6-8.5-6.8-15-6.8
		c-8,0-14.1,2.5-18.4,7.6c-4.3,5-6.4,12.3-6.4,21.8v99.2h-51.3v-102c0-8.5-1.8-15.1-5.3-19.7c-3.5-4.6-8.5-6.8-15-6.8
		c-8,0-14.1,2.5-18.4,7.6c-4.3,5-6.4,12.3-6.4,21.8v99.2H8270.8z"/>
	<path class="st0" d="M8697.2,10239.2c-5.5-13.3-13.4-23.6-23.5-30.8c-10.2-7.2-22.1-10.8-35.8-10.8c-8.9,0-17.3,2.1-25.2,6.4
		c-7.9,4.3-14.4,10.1-19.5,17.5h-1.7v-20h-51.3v243.7h51.3v-91.2h1.7c5.1,7.6,11.5,13.5,19.2,17.7c7.7,4.2,16,6.3,24.9,6.3
		c13.9,0,25.9-3.7,36.2-11.1c10.3-7.4,18.1-18,23.7-31.9c5.5-13.9,8.3-30.1,8.3-48.7C8705.5,10268.1,8702.7,10252.5,8697.2,10239.2z
		 M8644.5,10318.7c-5.7,7.6-13.5,11.4-23.4,11.4c-9.5,0-17-3.8-22.5-11.4c-5.5-7.6-8.3-17.9-8.3-30.8c0-13.1,2.8-23.5,8.5-31.1
		c5.7-7.6,13.5-11.4,23.4-11.4c9.5,0,17,3.8,22.5,11.4c5.5,7.6,8.3,18,8.3,31.1C8653,10300.8,8650.2,10311.1,8644.5,10318.7z"/>
	<path class="st0" d="M8891.3,10275.6c0-15.8-3.3-29.5-9.8-41.3c-6.6-11.8-15.9-20.8-27.9-27.2c-12.1-6.4-26.1-9.5-42-9.5
		c-17.1,0-32.1,3.8-44.9,11.3c-12.8,7.5-22.7,18.2-29.6,32.1c-6.9,13.9-10.4,30.1-10.4,48.7c0,17.9,3.6,33.4,10.7,46.7
		c7.1,13.3,17.2,23.6,30.4,30.8s28.4,10.8,45.9,10.8c17.7,0,32.9-4.1,45.6-12.3c12.7-8.2,21.9-19.7,27.6-34.5l-42.2-17.4
		c-3,6.8-7.2,12.3-12.5,16.4c-5.3,4.1-11.4,6.1-18.2,6.1c-18.4,0-29.5-9.5-33.1-28.5h106.6
		C8890,10298.4,8891.3,10287.6,8891.3,10275.6z M8781.6,10266.2c4.4-18,14.3-27.1,29.9-27.1c8.5,0,15.3,2.5,20.2,7.4
		c4.9,4.9,7.4,11.5,7.4,19.7H8781.6z"/>
	<path class="st0" d="M8916.4,10374l-2.8-172.4h54.2v31.1h1.7c11.6-23.4,32.7-35.1,63.3-35.1h1.7v49.6h-2.8
		c-23,0-39.4,3.6-49.2,10.7c-9.8,7.1-14.7,18.4-14.7,33.8v82.4H8916.4z"/>
	<path class="st0" d="M9135.7,10177.6c-3.5,2.9-5.3,7.2-5.3,13.1v10.8h40.8v48.5h-40.8v124h-51.3v-124h-23.4v-48.5h23.4v-14.5
		c0-20,5.1-35.3,15.2-46c10.2-10.7,24.7-16.1,43.7-16.1c14.1,0,25.5,1.7,34.2,5.1v49.3c-4.8-2.1-8.8-3.6-12.3-4.6
		c-3.4-0.9-7-1.4-10.8-1.4C9143.7,10173.3,9139.2,10174.8,9135.7,10177.6z"/>
</g>
<g>
	<path class="st0" d="M8090.4,10172.3c-43.4,0-78.6,35.2-78.6,78.6v146.8h146.9c43.4,0,78.6-35.2,78.6-78.6v-146.8H8090.4z"/>
	<g>
		<g>
			<defs>
				<path id="SVGID_1_" d="M8109.2,10366c-44.6,0-80.9-36.3-80.9-80.9c0-44.6,36.3-80.9,80.9-80.9s80.9,36.3,80.9,80.9
					c0,10.3-8.3,18.6-18.6,18.6c-10.3,0-18.6-8.3-18.6-18.6c0-24.1-19.6-43.7-43.7-43.7c-24.1,0-43.7,19.6-43.7,43.7
					c0,24.1,19.6,43.7,43.7,43.7c10.3,0,18.6,8.3,18.6,18.6C8127.8,10357.6,8119.5,10366,8109.2,10366z"/>
			</defs>
			<clipPath id="SVGID_00000142159776565054872610000008673584784046366111_">
				<use xlink:href="#SVGID_1_"  style="overflow:visible;"/>
			</clipPath>
			
				<g transform="matrix(1 0 0 1 -4.882812e-04 0)" style="clip-path:url(#SVGID_00000142159776565054872610000008673584784046366111_);">
				
					<image style="overflow:visible;" width="1301" height="1300" xlink:href="E3ECCCC7C2410B18.png"  transform="matrix(0.24 0 0 0.24 7952.9844 10129.0977)">
				</image>
			</g>
		</g>
		<g>
			<path class="st1" d="M8183.7,10337.1c7-7.4,6.7-19-0.6-26l-30.7-27.3c-7.4-7-19-6.7-26,0.7c-7,7.4-6.7,19,0.6,26l30.7,27.3
				C8165.1,10344.8,8176.7,10344.5,8183.7,10337.1z"/>
			<g>
				<path class="st1" d="M8158.4,10337.1c-7-7.4-6.7-19,0.6-26l30.7-27.3c7.4-7,19-6.7,26,0.7c7,7.4,6.7,19-0.6,26l-30.7,27.3
					C8177,10344.8,8165.4,10344.5,8158.4,10337.1z"/>
			</g>
		</g>
	</g>
</g>
<g>
	<path class="st0" d="M460.7,404.2V231.8H512v21.7h1.7c4.9-8.4,11.4-14.7,19.2-19.1c7.9-4.4,17-6.6,27.2-6.6
		c9.5,0,17.7,2.2,24.7,6.6c6.9,4.4,12.1,10.7,15.5,19.1h1.7c6.1-8.6,13.3-15,21.7-19.2c8.4-4.3,18.3-6.4,29.9-6.4
		c16,0,28.5,5.5,37.5,16.4c9,10.9,13.5,26.3,13.5,46v114h-51.3v-102c0-8.6-1.8-15.1-5.3-19.7c-3.5-4.6-8.5-6.8-15-6.8
		c-8,0-14.1,2.5-18.4,7.6c-4.3,5-6.4,12.3-6.4,21.8v99.2H557v-102c0-8.6-1.8-15.1-5.3-19.7c-3.5-4.6-8.5-6.8-15-6.8
		c-8,0-14.1,2.5-18.4,7.6c-4.3,5-6.4,12.3-6.4,21.8v99.2H460.7z"/>
	<path class="st0" d="M887.1,269.4c-5.5-13.3-13.4-23.6-23.5-30.8c-10.2-7.2-22.1-10.8-35.8-10.8c-8.9,0-17.3,2.1-25.2,6.4
		c-7.9,4.3-14.4,10.1-19.5,17.5h-1.7v-20H730v243.7h51.3v-91.2h1.7c5.1,7.6,11.5,13.5,19.2,17.7c7.7,4.2,16,6.3,24.9,6.3
		c13.9,0,25.9-3.7,36.2-11.1c10.3-7.4,18.1-18,23.7-31.9c5.5-13.9,8.3-30.1,8.3-48.7C895.3,298.4,892.6,282.7,887.1,269.4z
		 M834.3,348.9c-5.7,7.6-13.5,11.4-23.4,11.4c-9.5,0-17-3.8-22.5-11.4c-5.5-7.6-8.3-17.9-8.3-30.8c0-13.1,2.9-23.5,8.6-31.1
		c5.7-7.6,13.5-11.4,23.4-11.4c9.5,0,17,3.8,22.5,11.4c5.5,7.6,8.3,18,8.3,31.1C842.9,331,840,341.3,834.3,348.9z"/>
	<path class="st0" d="M1081.2,305.9c0-15.8-3.3-29.5-9.8-41.3c-6.6-11.8-15.9-20.8-27.9-27.2c-12.1-6.4-26.1-9.5-42-9.5
		c-17.1,0-32.1,3.8-44.9,11.3c-12.8,7.5-22.7,18.2-29.6,32.1c-6.9,13.9-10.4,30.1-10.4,48.7c0,17.9,3.6,33.4,10.7,46.7
		c7.1,13.3,17.2,23.6,30.4,30.8c13.1,7.2,28.4,10.8,45.9,10.8c17.7,0,32.9-4.1,45.6-12.3c12.7-8.2,21.9-19.7,27.6-34.5l-42.2-17.4
		c-3,6.8-7.2,12.3-12.5,16.4c-5.3,4.1-11.4,6.1-18.2,6.1c-18.4,0-29.5-9.5-33.1-28.5h106.6C1079.9,328.6,1081.2,317.8,1081.2,305.9z
		 M971.5,296.5c4.4-18,14.3-27.1,29.9-27.1c8.5,0,15.3,2.5,20.2,7.4c4.9,4.9,7.4,11.5,7.4,19.7H971.5z"/>
	<path class="st0" d="M1106.2,404.2l-2.8-172.4h54.2v31.1h1.7c11.6-23.4,32.7-35.1,63.3-35.1h1.7v49.6h-2.8
		c-23,0-39.4,3.6-49.2,10.7c-9.8,7.1-14.7,18.4-14.7,33.8v82.4H1106.2z"/>
	<path class="st0" d="M1325.5,207.8c-3.5,2.9-5.3,7.2-5.3,13.1v10.8h40.8v48.5h-40.8v124h-51.3v-124h-23.4v-48.5h23.4v-14.5
		c0-20,5.1-35.3,15.2-46c10.2-10.7,24.7-16.1,43.7-16.1c14.1,0,25.5,1.7,34.2,5.1v49.3c-4.8-2.1-8.8-3.6-12.3-4.6
		c-3.4-0.9-7-1.4-10.8-1.4C1333.5,203.5,1329,205,1325.5,207.8z"/>
</g>
<g>
	<path class="st0" d="M282,202.5c-43.4,0-78.6,35.2-78.6,78.6V428h146.9c43.4,0,78.6-35.2,78.6-78.6V202.5H282z"/>
</g>
<polygon class="st1" points="344.1,278.6 403.5,296.5 389.3,236.2 "/>
<path class="st1" d="M383.2,330.4c-5.9,31.7-33.7,55.9-67.1,55.9c-37.6,0-68.3-30.6-68.3-68.3c0-37.6,30.6-68.3,68.3-68.3
	c22.2,0,42,10.7,54.4,27.1h23.6c-14.8-28-44.3-47.1-78.1-47.1c-48.7,0-88.3,39.6-88.3,88.3s39.6,88.3,88.3,88.3
	c44.5,0,81.3-33,87.4-75.9H383.2z"/>
<ellipse class="st1" cx="393.3" cy="329.9" rx="10.2" ry="7.5"/>
</svg>
